<svg width="139" height="30" viewBox="0 0 139 30" fill="none" xmlns="http://www.w3.org/2000/svg">
  <path d="M0 0.5H21.7V7.1H7.8V12.1H20.8V18.3H7.8V29.5H0V0.5Z" fill="white"/>
  <path d="M34.4 0.5H26.2L26.1 29.5H33.9V19.7H41.1L44.2 29.5H52.6L48.8 18.2C51.4 16.2 52.8 13.3 52.8 9.7C52.8 3.9 49 0.5 41.5 0.5H34.4ZM34.4 7.1H40.4C43.1 7.1 44.5 8.2 44.5 10.3C44.5 12.4 43.1 13.5 40.4 13.5H34.4V7.1Z" fill="white"/>
  <path d="M59.7 22.9V18.3H75.1V11.5H59.7V7.1H76.7V0.5H51.9V29.5H77.2V22.9H59.7Z" fill="white"/>
  <path d="M112.5 29.5H121.1L110.2 0.5H100.9L90 29.5H98.6L100.2 25.2H110.9L112.5 29.5ZM102.6 18.6L105.6 10.2L108.6 18.6H102.6Z" fill="white"/>
  <path d="M122.2 0.5V29.5H138.2V22.9H130V0.5H122.2Z" fill="white"/>
  <path d="M80 0.5H87.8V29.5H80V0.5Z" fill="white"/>
  <path d="M94.5 7.1L90 0.5H87.8V1.9L94.5 12.3V7.1Z" fill="#FF5500"/>
</svg>